<svg width="60" height="60" viewBox="0 0 60 60" fill="none" xmlns="http://www.w3.org/2000/svg">
<path d="M22.0879 29.9805C22.0879 34.4846 25.7272 38.152 30.2046 38.152C34.6821 38.152 38.3214 34.4846 38.3214 29.9805C38.3214 25.476 34.6821 21.8086 30.2046 21.8086C25.7272 21.8086 22.0879 25.476 22.0879 29.9805ZM24.4588 29.9805C24.4588 26.7797 27.0385 24.1795 30.2046 24.1795C33.3708 24.1795 35.9505 26.7801 35.9505 29.9805C35.9505 33.1809 33.3708 35.7811 30.2046 35.7811C27.0385 35.7811 24.4588 33.1809 24.4588 29.9805Z" fill="white" stroke="white" stroke-width="0.5"/>
<path d="M38.1546 41.0932L38.1549 41.0931C38.6274 40.7496 39.2816 40.8002 39.6944 41.216L39.6944 41.216L41.7841 43.3216L43.4492 41.6438L41.3466 39.5252C40.9388 39.1145 40.8872 38.4694 41.2251 37.9992C42.4625 36.275 43.2921 34.2577 43.6251 32.1672C43.7165 31.5913 44.2134 31.1682 44.7963 31.1682H47.7539V28.7861H44.7963C44.2131 28.7861 43.717 28.3623 43.6252 27.7874L43.6251 27.7872C43.2926 25.6967 42.4625 23.6798 41.225 21.9549C40.8878 21.485 40.9387 20.84 41.3466 20.4291L43.4492 18.3106L41.7841 16.6327L39.6947 18.7381C39.6946 18.7382 39.6946 18.7382 39.6945 18.7382C39.2819 19.1549 38.6275 19.2064 38.1546 18.8611C36.4448 17.6156 34.4455 16.7807 32.3742 16.4461L32.3741 16.446C31.7999 16.353 31.3778 15.8576 31.3778 15.276V12.2869H29.0317V15.276C29.0317 15.8573 28.6098 16.3535 28.0353 16.4461C25.964 16.7807 23.9643 17.616 22.255 18.861L38.1546 41.0932ZM38.1546 41.0932C36.4453 42.3382 34.4456 43.1736 32.3743 43.5083C31.7998 43.6008 31.3778 44.0969 31.3778 44.6784V47.6674H29.0317V44.6784C29.0317 44.0967 28.6095 43.6013 28.0354 43.5083L28.0353 43.5083C25.964 43.1736 23.9647 42.3387 22.2548 41.0932C21.7821 40.7482 21.128 40.8007 20.7152 41.2158L20.715 41.216L18.6254 43.3216L16.9603 41.6438L19.0629 39.5252C19.4708 39.1143 19.5217 38.4693 19.1845 37.9994L19.1844 37.9994C17.947 36.2751 17.1173 34.2582 16.7843 32.1671L16.7843 32.1669C16.6924 31.592 16.1964 31.1682 15.6132 31.1682H12.6555V28.7861H15.6132C16.196 28.7861 16.693 28.3631 16.7843 27.7872C17.1169 25.6967 17.947 23.6798 19.1845 21.9549C19.5223 21.4848 19.4706 20.8398 19.0629 20.4292C19.0629 20.4292 19.0629 20.4291 19.0629 20.4291L16.9603 18.3106L18.6254 16.6327L20.715 18.7383L20.7151 18.7384M38.1546 41.0932L20.7151 18.7384M20.7151 18.7384C21.1281 19.1544 21.7819 19.206 22.2548 18.8611L20.7151 18.7384ZM17.7824 45.8395L17.7825 45.8396C18.2403 46.3004 19.0086 46.3006 19.4661 45.8395L21.7044 43.5845C23.2267 44.5491 24.911 45.2523 26.6598 45.6538V48.8529C26.6598 49.5079 27.191 50.0383 27.8457 50.0383H32.5633C33.2184 50.0383 33.7486 49.5071 33.7492 48.8526V48.8524V45.6534C35.498 45.2518 37.1823 44.5486 38.7047 43.5841L40.9429 45.8391L40.943 45.8391C41.3924 46.2916 42.1776 46.2917 42.6267 45.839L45.962 42.4784L45.7894 42.3071L45.962 42.4784C46.4208 42.0161 46.4208 41.2709 45.962 40.8086L45.962 40.8086L43.7138 38.5437C44.6755 37.0062 45.3763 35.3049 45.7752 33.5387H48.9399C49.5947 33.5387 50.1258 33.0078 50.1258 32.3532V27.6006C50.1258 26.9456 49.5946 26.4152 48.9399 26.4152H45.7753C45.3767 24.6489 44.6755 22.9477 43.7138 21.4102L45.962 19.1453L45.962 19.1452C46.4208 18.6829 46.4208 17.9378 45.962 17.4755L45.7846 17.6516L45.962 17.4755L42.6266 14.1148L42.6266 14.1147C42.1771 13.6623 41.3921 13.6621 40.9429 14.1148C40.9429 14.1148 40.9429 14.1148 40.9429 14.1149L38.7047 16.3698C37.1823 15.4053 35.498 14.702 33.7492 14.3005V11.1015C33.7492 10.4464 33.218 9.91602 32.5633 9.91602H27.8457C27.1909 9.91602 26.6598 10.4469 26.6598 11.1015V14.3005C24.911 14.702 23.2267 15.4053 21.7044 16.3698L19.4661 14.1148L19.466 14.1147C19.0166 13.6623 18.2315 13.6621 17.7823 14.1149L14.447 17.4755L14.447 17.4755C13.9882 17.9378 13.9882 18.6829 14.447 19.1452L14.447 19.1453L16.6952 21.4102C15.7335 22.9477 15.0328 24.649 14.6338 26.4152H11.4691C10.8143 26.4152 10.2832 26.9461 10.2832 27.6006V32.3537C10.2832 33.0088 10.8144 33.5392 11.4691 33.5392H14.6337C15.0323 35.3054 15.7335 37.0067 16.6952 38.5442L14.447 40.8091L14.447 40.8091C13.9882 41.2714 13.9882 42.0166 14.447 42.4789L14.6177 42.3094L14.447 42.4789L17.7824 45.8395Z" fill="white" stroke="white" stroke-width="0.5"/>
<path d="M55.6941 10.9344V10.9343C55.6909 10.5631 55.5409 10.269 55.3073 10.0718C55.0789 9.87898 54.7842 9.78948 54.4994 9.79116C54.2146 9.79283 53.9209 9.8858 53.6953 10.0824C53.4644 10.2835 53.3197 10.5808 53.3227 10.9534L53.3274 11.5276C47.6412 4.97578 38.8193 0.75 30.3354 0.75C21.3297 0.75 12.9948 4.84924 7.471 11.9954L7.47094 11.9955C7.24356 12.2899 7.17917 12.6141 7.24087 12.9138C7.30119 13.2067 7.47793 13.459 7.70325 13.6332C7.92857 13.8075 8.21717 13.9151 8.51604 13.8997C8.82175 13.8839 9.11933 13.7398 9.34729 13.4455L9.34743 13.4453C14.42 6.88326 22.0689 3.12092 30.3354 3.12092C38.489 3.12092 47.0098 7.37546 52.2121 13.889H50.1368C49.7647 13.889 49.4687 14.0362 49.2691 14.2683C49.0741 14.4952 48.9824 14.7894 48.9822 15.0743C48.9821 15.3592 49.0733 15.6535 49.2684 15.8805C49.468 16.1128 49.7642 16.2599 50.1368 16.2599H54.5414C55.1908 16.2599 55.7327 15.7148 55.7273 15.0649L55.6941 10.9344Z" fill="white" stroke="white" stroke-width="0.5"/>
<path d="M40.6159 56.4785C51.5595 51.8407 59.2486 41.0309 59.2486 29.7429C59.2486 26.1597 58.6042 22.6607 57.3331 19.3442C57.2 18.9968 56.9566 18.7731 56.6685 18.6698C56.3868 18.5688 56.0793 18.5885 55.8132 18.6902C55.5471 18.792 55.3048 18.9824 55.1626 19.2458C55.017 19.5152 54.9855 19.8445 55.1187 20.1924L55.1187 20.1924C56.2854 23.237 56.8772 26.4499 56.8772 29.7429C56.8772 39.8175 50.1428 49.5216 40.4343 53.9641L40.7069 53.5401C40.9081 53.2271 40.9443 52.8986 40.8569 52.6053C40.7714 52.3186 40.5735 52.0827 40.3338 51.9286C40.0942 51.7745 39.7973 51.6922 39.5009 51.7335C39.1976 51.7757 38.9136 51.9451 38.712 52.2583L38.7119 52.2584L36.4804 55.7298C36.4804 55.7299 36.4804 55.7299 36.4804 55.7299C36.0932 56.3319 36.3394 57.1599 36.9928 57.4521L40.7522 59.1377C41.0921 59.2901 41.4226 59.277 41.6997 59.1467C41.9707 59.0194 42.1744 58.7883 42.2909 58.5283C42.4073 58.2683 42.4441 57.9624 42.3589 57.6756C42.2718 57.3821 42.0619 57.1267 41.7223 56.9746L40.6159 56.4785Z" fill="white" stroke="white" stroke-width="0.5"/>
<mask id="path-5-outside-1_1323_39" maskUnits="userSpaceOnUse" x="0" y="16.689" width="33" height="43" fill="black">
<rect fill="white" y="16.689" width="33" height="43"/>
<path d="M31.4445 56.5925C31.0769 56.6074 30.7069 56.6149 30.3355 56.6149C15.5627 56.6149 3.54442 44.5601 3.54442 29.7429C3.54442 27.119 4.62768 23.8416 5.65996 21.0745L6.48269 22.9253C6.97194 24.0245 8.68336 23.2686 8.19271 22.1652L6.44808 18.2415C6.23433 17.7602 5.63938 17.5487 5.16837 17.7878L1.49623 19.6573C0.422791 20.204 1.26938 21.8701 2.34563 21.3243L3.85639 20.5553C2.78529 23.437 1.67256 26.8584 1.67256 29.7429C1.67256 45.5919 14.5304 58.4858 30.335 58.4858C30.7321 58.4858 31.1274 58.4779 31.5203 58.462C32.7237 58.4124 32.6522 56.5462 31.4445 56.5925C31.9674 56.5724 31.0764 56.6079 31.4445 56.5925Z"/>
</mask>
<path d="M31.4445 56.5925C31.0769 56.6074 30.7069 56.6149 30.3355 56.6149C15.5627 56.6149 3.54442 44.5601 3.54442 29.7429C3.54442 27.119 4.62768 23.8416 5.65996 21.0745L6.48269 22.9253C6.97194 24.0245 8.68336 23.2686 8.19271 22.1652L6.44808 18.2415C6.23433 17.7602 5.63938 17.5487 5.16837 17.7878L1.49623 19.6573C0.422791 20.204 1.26938 21.8701 2.34563 21.3243L3.85639 20.5553C2.78529 23.437 1.67256 26.8584 1.67256 29.7429C1.67256 45.5919 14.5304 58.4858 30.335 58.4858C30.7321 58.4858 31.1274 58.4779 31.5203 58.462C32.7237 58.4124 32.6522 56.5462 31.4445 56.5925C31.9674 56.5724 31.0764 56.6079 31.4445 56.5925Z" fill="white"/>
<path d="M31.4445 56.5925L31.4253 56.0928L31.4241 56.0929L31.4445 56.5925ZM5.65996 21.0745L6.11685 20.8714L5.61947 19.7525L5.19149 20.8997L5.65996 21.0745ZM6.48269 22.9253L6.0258 23.1284L6.0259 23.1286L6.48269 22.9253ZM8.19271 22.1652L7.73584 22.3684L7.73585 22.3684L8.19271 22.1652ZM6.44808 18.2415L5.99112 18.4444L5.99121 18.4446L6.44808 18.2415ZM5.16837 17.7878L4.94212 17.3419L4.94153 17.3422L5.16837 17.7878ZM1.49623 19.6573L1.26938 19.2117L1.26929 19.2117L1.49623 19.6573ZM2.34563 21.3243L2.57179 21.7702L2.57243 21.7699L2.34563 21.3243ZM3.85639 20.5553L4.32507 20.7295L4.77147 19.5285L3.62959 20.1097L3.85639 20.5553ZM31.5203 58.462L31.5405 58.9616L31.5408 58.9616L31.5203 58.462ZM31.4241 56.0929C31.0634 56.1076 30.7002 56.1149 30.3355 56.1149V57.1149C30.7136 57.1149 31.0903 57.1073 31.4648 57.0921L31.4241 56.0929ZM30.3355 56.1149C15.8403 56.1149 4.04442 44.2854 4.04442 29.7429H3.04442C3.04442 44.8348 15.2852 57.1149 30.3355 57.1149V56.1149ZM4.04442 29.7429C4.04442 27.2219 5.09281 24.0253 6.12842 21.2493L5.19149 20.8997C4.16254 23.6579 3.04442 27.016 3.04442 29.7429H4.04442ZM5.20307 21.2776L6.0258 23.1284L6.93959 22.7222L6.11685 20.8714L5.20307 21.2776ZM6.0259 23.1286C6.20597 23.5332 6.51704 23.795 6.88162 23.9043C7.23307 24.0098 7.60061 23.9644 7.90771 23.8284C8.2148 23.6923 8.49552 23.4504 8.65305 23.1184C8.81649 22.7739 8.82973 22.3672 8.64958 21.9621L7.73585 22.3684C7.80102 22.515 7.78432 22.6165 7.74958 22.6897C7.70892 22.7754 7.62321 22.8607 7.50262 22.9141C7.38204 22.9675 7.26065 22.974 7.16895 22.9465C7.09037 22.9229 7.00404 22.867 6.93949 22.722L6.0259 23.1286ZM8.64959 21.9621L6.90496 18.0383L5.99121 18.4446L7.73584 22.3684L8.64959 21.9621ZM6.90504 18.0385C6.57482 17.295 5.66781 16.9736 4.94212 17.3419L5.39463 18.2336C5.61094 18.1239 5.89384 18.2254 5.99112 18.4444L6.90504 18.0385ZM4.94153 17.3422L1.26938 19.2117L1.72308 20.1029L5.39522 18.2333L4.94153 17.3422ZM1.26929 19.2117C0.874719 19.4127 0.629208 19.7368 0.538983 20.1067C0.452005 20.4633 0.516851 20.8279 0.66917 21.1273C0.821497 21.4266 1.0781 21.6937 1.41776 21.8334C1.77005 21.9783 2.17666 21.9706 2.57179 21.7702L2.11947 20.8783C1.97647 20.9509 1.87367 20.9396 1.79807 20.9085C1.70985 20.8723 1.62009 20.791 1.56042 20.6737C1.50074 20.5565 1.48795 20.4361 1.5105 20.3436C1.52982 20.2645 1.58102 20.1752 1.72317 20.1028L1.26929 19.2117ZM2.57243 21.7699L4.08319 21.0009L3.62959 20.1097L2.11882 20.8787L2.57243 21.7699ZM3.38772 20.3811C2.31821 23.2585 1.17256 26.7577 1.17256 29.7429H2.17256C2.17256 26.9592 3.25238 23.6155 4.32507 20.7295L3.38772 20.3811ZM1.17256 29.7429C1.17256 45.8668 14.253 58.9858 30.335 58.9858V57.9858C14.8079 57.9858 2.17256 45.3171 2.17256 29.7429H1.17256ZM30.335 58.9858C30.7388 58.9858 31.1408 58.9778 31.5405 58.9616L31.5 57.9624C31.1139 57.978 30.7255 57.9858 30.335 57.9858V58.9858ZM31.5408 58.9616C31.9831 58.9433 32.3413 58.7513 32.5778 58.4531C32.8058 58.1655 32.8994 57.8072 32.8862 57.4716C32.8729 57.1359 32.7513 56.7859 32.5008 56.5172C32.241 56.2384 31.8681 56.0759 31.4253 56.0928L31.4636 57.0921C31.6247 57.0859 31.7136 57.1393 31.7693 57.199C31.8342 57.2687 31.8818 57.3797 31.8869 57.511C31.8921 57.6423 31.8535 57.757 31.7941 57.8318C31.7433 57.896 31.6591 57.9558 31.4997 57.9624L31.5408 58.9616ZM31.4235 56.0929C31.3777 56.0948 31.3504 56.096 31.3374 56.0966C31.3343 56.0967 31.3307 56.0969 31.3276 56.0971C31.3267 56.0971 31.3254 56.0972 31.3239 56.0973C31.3229 56.0973 31.3197 56.0975 31.3156 56.0978C31.3145 56.0979 31.3122 56.0981 31.3109 56.0982C31.3091 56.0984 31.305 56.0987 31.3026 56.099C31.2991 56.0993 31.2901 56.1004 31.2846 56.1011C31.2742 56.1026 31.2381 56.1097 31.2127 56.1164C31.0731 56.1818 30.8702 56.7285 31.1725 57.0629C31.2268 57.0804 31.2989 57.0936 31.3152 57.0951C31.3229 57.0956 31.335 57.0962 31.3394 57.0963C31.3423 57.0964 31.3473 57.0965 31.3493 57.0965C31.3535 57.0965 31.3567 57.0965 31.3582 57.0965C31.36 57.0964 31.3615 57.0964 31.3624 57.0964C31.3643 57.0964 31.3659 57.0963 31.3668 57.0963C31.3688 57.0962 31.3705 57.0962 31.3718 57.0961C31.3744 57.0961 31.3775 57.0959 31.3807 57.0958C31.4055 57.0949 31.467 57.0925 31.5225 57.0903C31.5504 57.0892 31.5773 57.0881 31.5977 57.0873C31.6079 57.0869 31.6168 57.0865 31.6234 57.0862C31.6267 57.0861 31.6297 57.0859 31.6322 57.0858C31.6335 57.0858 31.6349 57.0857 31.6363 57.0856C31.6371 57.0856 31.638 57.0856 31.6391 57.0855C31.6399 57.0854 31.6419 57.0853 31.6443 57.0852C31.6454 57.0851 31.6476 57.085 31.6505 57.0848C31.6518 57.0847 31.655 57.0844 31.6569 57.0843C31.6595 57.084 31.6664 57.0833 31.6705 57.0829C31.6781 57.082 31.7033 57.078 31.7209 57.0745C31.804 57.0485 32.1118 56.5436 31.8059 56.1246C31.7421 56.1029 31.6601 56.0883 31.6442 56.0871C31.6372 56.0867 31.6262 56.0863 31.6222 56.0862C31.6196 56.0862 31.6153 56.0861 31.6135 56.0861C31.6122 56.0861 31.6099 56.0861 31.6089 56.0862C31.6067 56.0862 31.6049 56.0862 31.6039 56.0862C31.6018 56.0863 31.6001 56.0863 31.5993 56.0863C31.5961 56.0864 31.5925 56.0865 31.5899 56.0866C31.5837 56.0868 31.5742 56.0872 31.5609 56.0877C31.5342 56.0887 31.4907 56.0903 31.4253 56.0928L31.4637 57.0921C31.529 57.0896 31.572 57.088 31.5981 57.087C31.6113 57.0865 31.6197 57.0862 31.6244 57.086C31.6271 57.0859 31.6272 57.0859 31.6261 57.086C31.6257 57.086 31.6244 57.086 31.6227 57.086C31.6218 57.0861 31.6201 57.0861 31.618 57.0861C31.6171 57.0861 31.6148 57.0861 31.6135 57.0861C31.6118 57.0861 31.6075 57.0861 31.605 57.0861C31.601 57.086 31.59 57.0856 31.583 57.0852C31.5671 57.084 31.4851 57.0693 31.4213 57.0477C31.1154 56.6286 31.4232 56.1238 31.5063 56.0978C31.5239 56.0942 31.5491 56.0903 31.5566 56.0894C31.5608 56.0889 31.5676 56.0883 31.5702 56.088C31.5721 56.0879 31.5752 56.0876 31.5765 56.0875C31.5793 56.0873 31.5814 56.0872 31.5824 56.0871C31.5845 56.087 31.5861 56.0869 31.5865 56.0869C31.5871 56.0868 31.5875 56.0868 31.5876 56.0868C31.5878 56.0868 31.5877 56.0868 31.587 56.0868C31.5857 56.0869 31.5837 56.087 31.5807 56.0871C31.5749 56.0874 31.5667 56.0877 31.5567 56.0881C31.5368 56.0889 31.5103 56.09 31.4826 56.0911C31.4267 56.0933 31.3672 56.0957 31.3448 56.0965C31.342 56.0966 31.3404 56.0966 31.3396 56.0967C31.3391 56.0967 31.3395 56.0967 31.3404 56.0966C31.3408 56.0966 31.342 56.0966 31.3435 56.0966C31.3443 56.0965 31.3456 56.0965 31.3473 56.0965C31.3487 56.0965 31.3518 56.0965 31.3559 56.0965C31.3579 56.0965 31.3628 56.0966 31.3657 56.0967C31.3701 56.0968 31.3822 56.0974 31.3899 56.0979C31.4061 56.0994 31.4782 56.1125 31.5325 56.13C31.8348 56.4645 31.6319 57.0111 31.4923 57.0765C31.4669 57.0832 31.4309 57.0903 31.4205 57.0918C31.415 57.0926 31.406 57.0936 31.4025 57.094C31.4002 57.0942 31.3961 57.0946 31.3944 57.0947C31.3931 57.0948 31.3908 57.095 31.3898 57.0951C31.386 57.0954 31.383 57.0955 31.3824 57.0956C31.3814 57.0956 31.3806 57.0957 31.3803 57.0957C31.3797 57.0957 31.3802 57.0957 31.3831 57.0956C31.3939 57.0951 31.4192 57.094 31.4654 57.092L31.4235 56.0929Z" fill="white" mask="url(#path-5-outside-1_1323_39)"/>
</svg>
