<svg width="60" height="60" viewBox="0 0 60 60" fill="none" xmlns="http://www.w3.org/2000/svg">
<path d="M22.0879 29.9805C22.0879 34.4846 25.7272 38.152 30.2046 38.152C34.6821 38.152 38.3214 34.4846 38.3214 29.9805C38.3214 25.476 34.6821 21.8086 30.2046 21.8086C25.7272 21.8086 22.0879 25.476 22.0879 29.9805ZM24.4588 29.9805C24.4588 26.7797 27.0385 24.1795 30.2046 24.1795C33.3708 24.1795 35.9505 26.7801 35.9505 29.9805C35.9505 33.1809 33.3708 35.7811 30.2046 35.7811C27.0385 35.7811 24.4588 33.1809 24.4588 29.9805Z" fill="#5D17E9" stroke="#635BFF" stroke-width="0.5"/>
<path d="M14.6244 42.3028L14.447 42.4789L17.7824 45.8395L17.7825 45.8396C18.2403 46.3004 19.0085 46.3006 19.4661 45.8395C19.4661 45.8395 19.4661 45.8395 19.4661 45.8395L21.7044 43.5845C23.2267 44.5491 24.911 45.2523 26.6598 45.6538V48.8529C26.6598 49.5079 27.191 50.0383 27.8457 50.0383H32.5633C33.2184 50.0383 33.7486 49.5071 33.7492 48.8526V48.8524V45.6534C35.498 45.2518 37.1823 44.5486 38.7047 43.5841L40.9429 45.8391L40.943 45.8391C41.3924 46.2915 42.1775 46.2917 42.6266 45.8391C42.6267 45.839 42.6267 45.839 42.6267 45.839L45.962 42.4784L45.7846 42.3023L45.962 42.4784C46.4208 42.0161 46.4208 41.2709 45.962 40.8086L45.962 40.8086L43.7138 38.5437C44.6755 37.0062 45.3763 35.3049 45.7752 33.5387H48.9399C49.5947 33.5387 50.1258 33.0078 50.1258 32.3532V27.6006C50.1258 26.9456 49.5946 26.4152 48.9399 26.4152H45.7753C45.3767 24.6489 44.6755 22.9477 43.7138 21.4102L45.962 19.1453L45.962 19.1452C46.4208 18.6829 46.4208 17.9378 45.962 17.4755L45.7846 17.6516L45.962 17.4755L42.6266 14.1148L42.6266 14.1147C42.1771 13.6623 41.392 13.6621 40.9429 14.1149L38.7047 16.3698C37.1823 15.4053 35.498 14.702 33.7492 14.3005V11.1015C33.7492 10.4464 33.218 9.91602 32.5633 9.91602H27.8457C27.1909 9.91602 26.6598 10.4469 26.6598 11.1015V14.3005C24.911 14.702 23.2267 15.4053 21.7044 16.3698L19.4661 14.1148L19.466 14.1147C19.0166 13.6623 18.2315 13.6621 17.7824 14.1148C17.7824 14.1148 17.7823 14.1148 17.7823 14.1149L14.447 17.4755L14.447 17.4755C13.9882 17.9378 13.9882 18.6829 14.447 19.1452L14.447 19.1453L16.6952 21.4102C15.7335 22.9477 15.0328 24.649 14.6338 26.4152H11.4691C10.8143 26.4152 10.2832 26.9461 10.2832 27.6006V32.3537C10.2832 33.0088 10.8144 33.5392 11.4691 33.5392H14.6337C15.0323 35.3054 15.7335 37.0067 16.6952 38.5442L14.447 40.8091L14.447 40.8091C13.9882 41.2714 13.9882 42.0166 14.447 42.4789L14.6244 42.3028ZM38.1549 41.0931L38.1546 41.0932C36.4453 42.3382 34.4456 43.1736 32.3743 43.5083C31.7998 43.6008 31.3778 44.097 31.3778 44.6784V47.6674H29.0317V44.6784C29.0317 44.0967 28.6095 43.6013 28.0354 43.5083L28.0353 43.5083C25.964 43.1736 23.9647 42.3387 22.2548 41.0932C21.7821 40.7482 21.128 40.8007 20.7152 41.2158L20.715 41.216L18.6254 43.3216L16.9603 41.6438L19.0629 39.5252C19.4708 39.1143 19.5217 38.4693 19.1845 37.9994L19.1844 37.9994C17.947 36.2751 17.1173 34.2582 16.7843 32.1671L16.7843 32.1669C16.6924 31.592 16.1964 31.1682 15.6132 31.1682H12.6555V28.7861H15.6132C16.196 28.7861 16.693 28.3631 16.7843 27.7872C17.1169 25.6967 17.947 23.6798 19.1845 21.9549C19.5223 21.4848 19.4706 20.8398 19.0629 20.4292C19.0629 20.4292 19.0629 20.4291 19.0629 20.4291L16.9603 18.3106L18.6254 16.6327L20.715 18.7383L20.7151 18.7384C21.1281 19.1544 21.782 19.206 22.255 18.861C23.9643 17.616 25.964 16.7807 28.0353 16.4461C28.6098 16.3535 29.0317 15.8573 29.0317 15.276V12.2869H31.3778V15.276C31.3778 15.8576 31.7999 16.353 32.3741 16.446L32.3742 16.4461C34.4455 16.7807 36.4448 17.6156 38.1546 18.8611C38.6275 19.2064 39.2819 19.1549 39.6945 18.7382C39.6946 18.7382 39.6946 18.7382 39.6947 18.7381L41.7841 16.6327L43.4492 18.3106L41.3466 20.4291C41.3466 20.4291 41.3466 20.4292 41.3466 20.4292C40.9387 20.8401 40.8878 21.485 41.225 21.9549C42.4625 23.6798 43.2926 25.6967 43.6251 27.7872L43.6252 27.7874C43.717 28.3623 44.2131 28.7861 44.7963 28.7861H47.7539V31.1682H44.7963C44.2135 31.1682 43.7165 31.5912 43.6251 32.167C43.2922 34.2576 42.4625 36.2749 41.2251 37.9992C40.8872 38.4694 40.9388 39.1145 41.3466 39.5252L43.4492 41.6438L41.7841 43.3216L39.6944 41.216L39.6944 41.216C39.2816 40.8002 38.6274 40.7496 38.1549 41.0931Z" fill="#5D17E9" stroke="#635BFF" stroke-width="0.5"/>
<path d="M55.6941 10.9344V10.9343C55.6909 10.5631 55.5409 10.269 55.3073 10.0718C55.0789 9.87898 54.7842 9.78948 54.4994 9.79116C54.2146 9.79283 53.9209 9.8858 53.6953 10.0824C53.4644 10.2835 53.3197 10.5808 53.3227 10.9534L53.3274 11.5276C47.6412 4.97578 38.8193 0.75 30.3354 0.75C21.3297 0.75 12.9948 4.84924 7.471 11.9954L7.47094 11.9955C7.24356 12.2899 7.17917 12.6141 7.24087 12.9138C7.30119 13.2067 7.47793 13.459 7.70325 13.6332C7.92857 13.8075 8.21717 13.9151 8.51604 13.8997C8.82175 13.8839 9.11933 13.7398 9.34729 13.4455L9.34743 13.4453C14.42 6.88326 22.0689 3.12092 30.3354 3.12092C38.489 3.12092 47.0098 7.37546 52.2121 13.889H50.1368C49.7646 13.889 49.4687 14.0362 49.2691 14.2683C49.0741 14.4952 48.9824 14.7894 48.9822 15.0743C48.9821 15.3592 49.0733 15.6535 49.2684 15.8805C49.468 16.1128 49.7642 16.2599 50.1368 16.2599H54.5414C55.1908 16.2599 55.7327 15.7148 55.7273 15.0649L55.6941 10.9344Z" fill="#5D17E9" stroke="#635BFF" stroke-width="0.5"/>
<path d="M55.1187 20.1926L55.1187 20.1927C56.2854 23.2373 56.8772 26.4502 56.8772 29.7431C56.8772 39.8178 50.1428 49.5218 40.4343 53.9644L40.7069 53.5403C40.9081 53.2274 40.9443 52.8989 40.8569 52.6056C40.7714 52.3189 40.5735 52.0829 40.3338 51.9288C40.0942 51.7747 39.7973 51.6925 39.5008 51.7338C39.1976 51.776 38.9136 51.9454 38.712 52.2585L38.7119 52.2587L36.4804 55.7301C36.4804 55.7301 36.4804 55.7301 36.4804 55.7301C36.0932 56.3321 36.3394 57.1601 36.9928 57.4523L40.7522 59.1379C41.0921 59.2903 41.4226 59.2772 41.6997 59.147C41.9707 59.0197 42.1744 58.7885 42.2909 58.5285C42.4073 58.2685 42.4441 57.9626 42.3589 57.6758C42.2718 57.3824 42.062 57.127 41.7224 56.9749C41.7224 56.9749 41.7223 56.9749 41.7223 56.9749L40.6159 56.4787C51.5595 51.841 59.2486 41.0312 59.2486 29.7431C59.2486 26.16 58.6042 22.6609 57.3331 19.3445C57.2 18.997 56.9566 18.7733 56.6685 18.67C56.3868 18.5691 56.0793 18.5887 55.8132 18.6905C55.5471 18.7922 55.3048 18.9827 55.1626 19.246C55.017 19.5155 54.9855 19.8447 55.1187 20.1926Z" fill="#5D17E9" stroke="#635BFF" stroke-width="0.5"/>
<path d="M31.4349 56.3422L31.4343 56.3422C31.4342 56.3422 31.4341 56.3422 31.434 56.3422L31.4336 56.3422C31.0696 56.357 30.7033 56.3644 30.3355 56.3644C15.7015 56.3644 3.79442 44.4223 3.79442 29.7424C3.79442 27.3463 4.71909 24.3737 5.68141 21.7377L6.25425 23.0264L6.2543 23.0265C6.40549 23.3661 6.66037 23.5765 6.95345 23.6644C7.23997 23.7503 7.54596 23.7147 7.80643 23.5993C8.0669 23.4839 8.29887 23.2812 8.42718 23.0107C8.55845 22.7341 8.57255 22.4037 8.42115 22.0632L6.67656 18.1395C6.40458 17.5271 5.6536 17.2607 5.05524 17.5643L5.05495 17.5645L1.38281 19.434L1.38276 19.434C1.05129 19.6029 0.85436 19.8682 0.781864 20.1654C0.71099 20.456 0.762824 20.7596 0.891983 21.0134C1.02115 21.2672 1.23603 21.4879 1.51284 21.6017C1.79595 21.7181 2.12661 21.7152 2.45871 21.5467L2.45903 21.5466L3.40188 21.0667C2.40249 23.8184 1.42256 27.0084 1.42256 29.7424C1.42256 45.7289 14.3917 58.7354 30.335 58.7354C30.7355 58.7354 31.1341 58.7273 31.5304 58.7113L31.5305 58.7113C31.9021 58.696 32.1918 58.537 32.3819 58.2973C32.5677 58.0629 32.6476 57.7655 32.6364 57.4809C32.6251 57.1963 32.5221 56.9061 32.3179 56.6871C32.1641 56.5221 31.9598 56.4053 31.7141 56.3609C31.7126 56.3589 31.7112 56.3569 31.7098 56.3549C31.6779 56.344 31.6369 56.3367 31.6289 56.3361L31.6179 56.3357L31.6112 56.3357L31.6086 56.3357L31.606 56.3357L31.5985 56.336L31.5702 56.337L31.4349 56.3422ZM31.4445 56.5917L31.4445 56.5919L31.4445 56.5917Z" fill="#5D17E9" stroke="#635BFF" stroke-width="0.5"/>
</svg>
