<svg width="55" height="58" viewBox="0 0 55 58" fill="none" xmlns="http://www.w3.org/2000/svg">
<path d="M35.7224 18.6687L35.723 18.6697C38.2557 22.4314 40.0086 26.3726 40.6278 29.8683C41.3127 33.648 40.6229 36.5794 38.5343 37.9985C38.5342 37.9986 38.534 37.9987 38.5338 37.9988L38.3933 37.792C37.9596 38.0916 37.4704 38.3016 36.9545 38.4096L35.7224 18.6687ZM35.7224 18.6687C32.9743 14.6258 29.7577 11.5181 26.7325 9.74894C23.7227 7.98883 20.823 7.51365 18.7876 8.90785L18.7876 8.90784L18.7849 8.90971C18.3402 9.22293 17.9537 9.61162 17.643 10.0582L17.5982 10.1225V10.1453L17.5976 10.1467C17.5811 10.1809 17.5565 10.2316 17.5241 10.2979C17.4595 10.4304 17.3645 10.6242 17.2436 10.8704C17.0017 11.3629 16.6561 12.0649 16.2413 12.9065C15.4117 14.5896 14.3056 16.831 13.1995 19.0714C12.0933 21.3119 10.9872 23.5514 10.1576 25.2307L9.15516 27.2598L8.8743 27.8282L8.80417 27.9702L3.91862 31.2801L3.91843 31.2803C3.13287 31.8135 2.46006 32.4963 1.93846 33.2897C1.41685 34.083 1.05665 34.9714 0.878451 35.904C0.700249 36.8365 0.707531 37.7951 0.89988 38.7249C1.09223 39.6546 1.46587 40.5374 1.99946 41.3227C1.99947 41.3227 1.99947 41.3228 1.99948 41.3228L2.22177 41.65L2.22247 41.651C3.30099 43.2221 4.95541 44.3047 6.8269 44.6639C8.61691 45.0075 10.4674 44.6628 12.0108 43.7045L19.8089 55.1923L19.8149 55.2011L19.8216 55.2094C20.4259 55.9545 21.3166 56.7091 22.4293 57.0552C23.5523 57.4045 24.8785 57.3301 26.3211 56.451L26.3211 56.4511L26.327 56.4473C26.8464 56.1105 27.2895 55.6686 27.6277 55.1501C27.9651 54.6327 28.1906 54.0505 28.2897 53.4408M35.7224 18.6687L28.2897 53.4408M28.2897 53.4408C28.407 52.8361 28.4036 52.2141 28.2795 51.6107C28.1553 51.0061 27.9124 50.4322 27.5651 49.922L28.2897 53.4408ZM36.998 38.6558L37.0057 38.6543L27.5647 49.9216L20.8156 39.9647L21.0978 39.9422L22.9706 39.7929C24.5208 39.6692 26.5884 39.504 28.6579 39.338C30.7274 39.1721 32.799 39.0053 34.357 38.8785C35.136 38.8151 35.7868 38.7617 36.2449 38.7234C36.4739 38.7042 36.655 38.6888 36.78 38.6777C36.8424 38.6722 36.8914 38.6677 36.9256 38.6644C36.9426 38.6628 36.9569 38.6613 36.9678 38.6601L36.985 38.6579C36.9864 38.6577 36.9885 38.6574 36.991 38.657C36.9931 38.6567 36.9955 38.6563 36.998 38.6558ZM17.6182 10.1032C17.6182 10.1032 17.6182 10.1032 17.6182 10.1033L17.6182 10.1032ZM4.43244 40.1526L4.43238 40.1526L4.21007 39.8253L4.00327 39.9657L4.21007 39.8253C3.87312 39.3292 3.63731 38.7716 3.51614 38.1842C3.39497 37.5969 3.39082 36.9915 3.50392 36.4026C3.61703 35.8137 3.84517 35.2528 4.17529 34.7522C4.50541 34.2516 4.93103 33.821 5.42777 33.485L5.42832 33.4846L9.48856 30.723L14.8395 38.6027L10.779 41.3646C10.2828 41.702 9.72494 41.9383 9.13736 42.06C8.54977 42.1817 7.94396 42.1864 7.35455 42.0739C6.76514 41.9613 6.2037 41.7337 5.7023 41.404C5.20091 41.0744 4.7694 40.6491 4.43244 40.1526ZM21.995 53.689L21.9949 53.6888L14.2247 42.2428L17.1437 40.259L17.7725 40.2081L25.3722 51.4183C25.3722 51.4184 25.3723 51.4185 25.3724 51.4186C25.6728 51.8658 25.7836 52.4138 25.6805 52.9426C25.5775 53.4713 25.269 53.9376 24.8228 54.2392C24.3745 54.5401 23.8253 54.6512 23.2953 54.5481C22.7653 54.445 22.2978 54.1361 21.995 53.689ZM19.3768 12.4574L19.3777 12.4547C19.526 11.9754 19.8221 11.5551 20.2235 11.254C20.6244 10.9533 21.11 10.7869 21.611 10.7782C22.9936 10.779 24.9165 11.5773 27.0348 13.1726C29.1453 14.7619 31.4194 17.12 33.4994 20.1847L33.4995 20.1849C35.8482 23.6403 37.5424 27.2351 38.004 30.3565L38.0041 30.3574C38.4569 33.3445 37.7584 34.7657 37.0243 35.4484C36.6517 35.7949 36.2529 35.9682 35.947 36.0549C35.7941 36.0982 35.6654 36.1196 35.5765 36.1301C35.5321 36.1354 35.4978 36.1379 35.4756 36.1391C35.4659 36.1397 35.4585 36.14 35.4537 36.1401C34.0513 36.0457 32.1643 35.2002 30.1069 33.6111C28.0515 32.0236 25.8507 29.7127 23.8289 26.7338C21.8071 23.7547 20.4717 20.8607 19.7542 18.3681C19.0344 15.867 18.9451 13.7996 19.3768 12.4574ZM29.7117 36.595L17.3559 37.5685L11.3809 28.7682L16.8411 17.6346C17.5217 20.866 19.1455 24.5882 21.6245 28.2374C24.1036 31.8868 26.9631 34.7695 29.7117 36.595Z" fill="white" stroke="white" stroke-width="0.5"/>
<path d="M23.2589 19.7395L23.2589 19.7395L23.258 19.7401C23.1138 19.8398 22.9907 19.967 22.8957 20.1144C22.8007 20.2618 22.7356 20.4264 22.7042 20.5989C22.6728 20.7714 22.6757 20.9484 22.7127 21.1198C22.7497 21.2912 22.8201 21.4536 22.9199 21.5978C23.0197 21.7419 23.1469 21.865 23.2942 21.9601C23.4416 22.0551 23.6062 22.1202 23.7787 22.1516C23.9512 22.1829 24.1282 22.1801 24.2996 22.143C24.4706 22.1061 24.6326 22.036 24.7766 21.9366C25.1518 21.682 25.5735 21.5038 26.0176 21.4121C26.462 21.3204 26.9201 21.317 27.3659 21.4023C27.8116 21.4876 28.2361 21.6599 28.6152 21.9092C28.9944 22.1586 29.3207 22.4802 29.5755 22.8556C29.8304 23.2311 30.0088 23.6531 30.1006 24.0975C30.1923 24.5419 30.1957 25.0001 30.1104 25.4458C30.0251 25.8915 29.8528 26.316 29.6035 26.6952C29.3541 27.0743 29.0325 27.4006 28.657 27.6555L28.657 27.6555L28.6554 27.6566C28.4216 27.818 28.2456 28.0501 28.1532 28.3187C28.0608 28.5874 28.0568 28.8785 28.1418 29.1496C28.2268 29.4207 28.3963 29.6575 28.6255 29.8253C28.854 29.9926 29.1299 30.0826 29.413 30.0822C29.684 30.0868 29.9497 30.0069 30.1733 29.8536C31.1745 29.1752 31.9518 28.215 32.4069 27.0945C32.8621 25.9738 32.9745 24.7432 32.7297 23.5586C32.4849 22.374 31.894 21.2887 31.0319 20.4402C30.1698 19.5917 29.0753 19.0182 27.887 18.7923L27.8638 18.7879H27.8403H27.8211C27.0396 18.6377 26.2362 18.6432 25.4567 18.8041C24.6692 18.9667 23.922 19.2847 23.2589 19.7395Z" fill="white" stroke="white" stroke-width="0.5"/>
<path d="M36.8241 11.5427L36.8369 11.544H36.8499H36.9549H36.955C37.2841 11.5439 37.6015 11.4218 37.8459 11.2013C38.0902 10.9808 38.2442 10.6776 38.278 10.3502L38.2781 10.3501L39.1114 2.25156C39.134 2.07638 39.1216 1.89842 39.0748 1.72807C39.0277 1.55648 38.9466 1.3961 38.8363 1.2564C38.7261 1.1167 38.589 1.00054 38.4331 0.914768C38.2772 0.829 38.1056 0.775374 37.9286 0.757064C37.7516 0.738753 37.5728 0.75613 37.4026 0.808166C37.2324 0.860201 37.0744 0.945839 36.9379 1.06001C36.8014 1.17419 36.6892 1.31458 36.608 1.47287C36.5272 1.63011 36.4786 1.80185 36.465 1.97805L35.6379 10.0827L35.8866 10.1084L35.6378 10.083L35.6379 10.0828C35.6017 10.4337 35.7064 10.7845 35.9288 11.0582C36.1512 11.332 36.4732 11.5062 36.8241 11.5427Z" fill="white" stroke="white" stroke-width="0.5"/>
<path d="M49.1807 9.10868L49.1804 9.10889L41.6527 14.0491L41.6521 14.0495C41.4115 14.2084 41.2289 14.4412 41.132 14.7129C41.0351 14.9846 41.0291 15.2803 41.1149 15.5557C41.2007 15.8311 41.3736 16.0711 41.6077 16.2397C41.8402 16.4072 42.1206 16.4951 42.4071 16.4904C42.6734 16.4955 42.9352 16.4216 43.1596 16.2781L43.1597 16.2781L43.1621 16.2765L50.6898 11.3363L50.6898 11.3364L50.6964 11.3317C50.984 11.1294 51.1798 10.8215 51.2411 10.4753C51.3022 10.13 51.2245 9.77451 51.0249 9.4862C50.8297 9.19321 50.5268 8.98903 50.1819 8.91806C49.8361 8.84691 49.4762 8.91543 49.1807 9.10868Z" fill="white" stroke="white" stroke-width="0.5"/>
<path d="M52.7488 22.4909L52.7506 22.4964L44.4088 20.9962L44.4088 20.9962C44.061 20.9337 43.7026 21.0119 43.4125 21.2137C43.1224 21.4154 42.9243 21.7241 42.8618 22.0719C42.7993 22.4196 42.8775 22.778 43.0793 23.0681C43.281 23.3582 43.5897 23.5563 43.9374 23.6188C43.9374 23.6188 43.9375 23.6188 43.9375 23.6188L52.6878 25.1935L52.7097 25.1974H52.732H52.92C53.2577 25.2063 53.5862 25.0865 53.8388 24.862C54.0924 24.6368 54.2504 24.3232 54.2805 23.9853C54.3106 23.6475 54.2105 23.3109 54.0007 23.0443C53.791 22.7778 53.4873 22.6014 53.1519 22.5512L52.7488 22.4909Z" fill="white" stroke="white" stroke-width="0.5"/>
</svg>
