<svg width="55" height="58" viewBox="0 0 55 58" fill="none" xmlns="http://www.w3.org/2000/svg">
<path d="M35.7224 18.6684L35.723 18.6693C38.2557 22.4311 40.0087 26.3723 40.6278 29.8679C41.3127 33.6475 40.623 36.5788 38.5346 37.9979C38.0737 38.3162 37.5539 38.5392 37.0057 38.6539M35.7224 18.6684L36.9545 38.4092M35.7224 18.6684C32.9743 14.6254 29.7577 11.5177 26.7325 9.74858C23.7227 7.98846 20.823 7.51329 18.7876 8.90749L18.7876 8.90747L18.7849 8.90934C18.3402 9.22256 17.9537 9.61126 17.643 10.0578L17.5982 10.1222V10.145L17.5976 10.1463C17.5811 10.1805 17.5565 10.2312 17.5241 10.2975C17.4595 10.4301 17.3645 10.6238 17.2436 10.8701C17.0017 11.3625 16.6561 12.0645 16.2413 12.9061C15.4117 14.5892 14.3056 16.8306 13.1995 19.0711C12.0933 21.3115 10.9872 23.551 10.1576 25.2304L9.15516 27.2594L8.8743 27.8279L8.80417 27.9698M35.7224 18.6684L8.80417 27.9698M37.0057 38.6539L36.9545 38.4092M37.0057 38.6539L37.0114 38.6527C37.0177 38.6511 37.0357 38.6457 37.0473 38.6413L36.9545 38.4092M37.0057 38.6539L36.998 38.6555C36.9947 38.6561 36.9916 38.6566 36.9891 38.6569C36.9875 38.6572 36.986 38.6574 36.985 38.6576L36.9678 38.6597C36.9569 38.6609 36.9426 38.6624 36.9256 38.664C36.8914 38.6674 36.8424 38.6718 36.78 38.6773C36.655 38.6884 36.4739 38.7038 36.2449 38.723C35.7868 38.7614 35.136 38.8148 34.357 38.8782C32.799 39.005 30.7274 39.1717 28.6579 39.3377C26.5884 39.5036 24.5208 39.6688 22.9706 39.7925L21.0978 39.9419L20.8156 39.9644M36.9545 38.4092C36.8976 38.432 22.848 39.5517 20.6543 39.7264L20.8156 39.9644M20.8156 39.9644L20.5732 39.9837L20.529 39.9872M20.8156 39.9644L20.529 39.9872M8.80417 27.9698L3.91862 31.2798L3.91843 31.2799C3.13287 31.8131 2.46007 32.496 1.93846 33.2893C1.41685 34.0827 1.05665 34.971 0.878451 35.9036C0.700249 36.8362 0.707531 37.7947 0.89988 38.7245C1.09223 39.6543 1.46588 40.5371 1.99948 41.3224L2.22177 41.6497L2.22247 41.6507C3.30099 43.2218 4.95541 44.3043 6.8269 44.6635C8.61691 45.0071 10.4674 44.6624 12.0108 43.7042L19.8089 55.192L19.8149 55.2008L19.8216 55.209C20.4259 55.9541 21.3166 56.7087 22.4293 57.0548C23.5523 57.4042 24.8785 57.3297 26.3211 56.4507L26.3211 56.4508L26.327 56.447C26.8464 56.1102 27.2895 55.6683 27.6277 55.1497C27.9651 54.6323 28.1906 54.0501 28.2897 53.4404C28.407 52.8357 28.4036 52.2137 28.2795 51.6103C28.1552 51.0056 27.9123 50.4316 27.5649 49.9214L27.5651 49.9217L27.3583 50.0618L27.5647 49.9212L8.80417 27.9698ZM20.529 39.9872L20.3677 39.7492L20.529 39.9872ZM17.6182 10.1029C17.6182 10.1028 17.6182 10.1028 17.6182 10.1029L17.6182 10.1029ZM4.43244 40.1523L4.43238 40.1522L4.21007 39.8249L4.01003 39.9608L4.21007 39.8249C3.87312 39.3288 3.63731 38.7712 3.51614 38.1839C3.39497 37.5966 3.39081 36.9911 3.50392 36.4022C3.61703 35.8133 3.84517 35.2525 4.17529 34.7518C4.50541 34.2512 4.93103 33.8206 5.42777 33.4846L5.42832 33.4843L9.48856 30.7226L14.8395 38.6023L10.779 41.3642C10.2828 41.7016 9.72494 41.9379 9.13736 42.0596C8.54977 42.1813 7.94396 42.186 7.35455 42.0735C6.76514 41.9609 6.2037 41.7333 5.7023 41.4037C5.20091 41.074 4.7694 40.6488 4.43244 40.1523ZM21.995 53.6887L21.9949 53.6884L14.2247 42.2424L17.1437 40.2586L17.7725 40.2078L25.3722 51.4179C25.3722 51.418 25.3723 51.4181 25.3723 51.4182C25.6728 51.8654 25.7836 52.4135 25.6805 52.9423C25.5774 53.4711 25.2689 53.9374 24.8225 54.239C24.3743 54.5398 23.8251 54.6508 23.2953 54.5477C22.7653 54.4446 22.2978 54.1357 21.995 53.6887ZM19.3768 12.457L19.3777 12.4544C19.526 11.975 19.8221 11.5547 20.2235 11.2537C20.6244 10.953 21.11 10.7865 21.611 10.7779C22.9936 10.7787 24.9165 11.577 27.0348 13.1722C29.1453 14.7615 31.4194 17.1196 33.4994 20.1844L33.4995 20.1845C35.8482 23.6399 37.5424 27.2347 38.004 30.3562L38.0041 30.3571C38.4569 33.3441 37.7584 34.7653 37.0243 35.448C36.6517 35.7946 36.2529 35.9678 35.947 36.0545C35.7941 36.0978 35.6654 36.1192 35.5765 36.1298C35.5321 36.135 35.4978 36.1376 35.4756 36.1388C35.4659 36.1393 35.4585 36.1396 35.4537 36.1397C34.0513 36.0453 32.1643 35.1999 30.1069 33.6108C28.0515 32.0233 25.8507 29.7123 23.8289 26.7334C21.8071 23.7544 20.4717 20.8604 19.7542 18.3677C19.0344 15.8666 18.9451 13.7993 19.3768 12.457ZM29.7117 36.5946L17.3559 37.5681L11.3809 28.7678L16.8411 17.6342C17.5217 20.8657 19.1455 24.5878 21.6245 28.237C24.1036 31.8865 26.9631 34.7691 29.7117 36.5946Z" fill="#5D17E9" stroke="#5D17E9" stroke-width="0.5"/>
<path d="M23.2589 19.739L23.2589 19.739L23.258 19.7396C23.1138 19.8394 22.9907 19.9666 22.8957 20.1139C22.8007 20.2613 22.7356 20.4259 22.7042 20.5984C22.6728 20.7709 22.6757 20.9479 22.7127 21.1193C22.7497 21.2907 22.8201 21.4531 22.9199 21.5973C23.0197 21.7414 23.1469 21.8646 23.2942 21.9596C23.4416 22.0546 23.6062 22.1197 23.7787 22.1511C23.9512 22.1825 24.1282 22.1796 24.2996 22.1426C24.4706 22.1056 24.6326 22.0355 24.7766 21.9361C25.1518 21.6815 25.5735 21.5033 26.0176 21.4116C26.462 21.3199 26.9201 21.3165 27.3659 21.4018C27.8116 21.4871 28.2361 21.6594 28.6152 21.9087C28.9944 22.1581 29.3207 22.4797 29.5755 22.8552C29.8304 23.2306 30.0088 23.6526 30.1006 24.097C30.1923 24.5415 30.1957 24.9996 30.1104 25.4453C30.0251 25.891 29.8528 26.3155 29.6035 26.6947C29.3541 27.0738 29.0325 27.4001 28.657 27.655L28.657 27.655L28.6554 27.6561C28.4216 27.8176 28.2456 28.0496 28.1532 28.3182C28.0608 28.5869 28.0568 28.878 28.1418 29.1491C28.2268 29.4202 28.3963 29.657 28.6255 29.8248C28.854 29.9921 29.1299 30.0821 29.413 30.0818C29.684 30.0863 29.9498 30.0063 30.1733 29.853C31.1745 29.1747 31.9518 28.2144 32.4069 27.094C32.8621 25.9733 32.9745 24.7427 32.7297 23.5581C32.4849 22.3735 31.894 21.2882 31.0319 20.4397C30.1698 19.5912 29.0753 19.0177 27.887 18.7918L27.8638 18.7874H27.8403H27.8211C27.0396 18.6372 26.2362 18.6427 25.4567 18.8036C24.6692 18.9662 23.922 19.2842 23.2589 19.739Z" fill="#5D17E9" stroke="#5D17E9" stroke-width="0.5"/>
<path d="M36.8241 11.5427L36.8369 11.544H36.8499H36.9549H36.955C37.2841 11.5439 37.6015 11.4218 37.8459 11.2013C38.0902 10.9808 38.2442 10.6776 38.278 10.3502L38.2781 10.3501L39.1114 2.25156C39.134 2.07638 39.1216 1.89842 39.0748 1.72807C39.0277 1.55648 38.9466 1.3961 38.8363 1.2564C38.7261 1.1167 38.589 1.00054 38.4331 0.914768C38.2772 0.829 38.1056 0.775374 37.9286 0.757064C37.7516 0.738753 37.5728 0.75613 37.4026 0.808166C37.2324 0.860201 37.0744 0.945839 36.9379 1.06001C36.8014 1.17419 36.6892 1.31458 36.608 1.47287C36.5272 1.63011 36.4786 1.80185 36.465 1.97805L35.6379 10.0827L35.8866 10.1084L35.6378 10.083L35.6379 10.0828C35.6017 10.4337 35.7064 10.7845 35.9288 11.0582C36.1512 11.332 36.4732 11.5062 36.8241 11.5427Z" fill="#5D17E9" stroke="#5D17E9" stroke-width="0.5"/>
<path d="M49.1807 9.10868L49.1804 9.10889L41.6527 14.0491L41.6521 14.0495C41.4115 14.2084 41.2289 14.4412 41.132 14.7129C41.0351 14.9846 41.0291 15.2803 41.1149 15.5557C41.2007 15.8311 41.3736 16.0711 41.6077 16.2397C41.8402 16.4072 42.1206 16.4951 42.4071 16.4904C42.6734 16.4955 42.9352 16.4216 43.1596 16.2781L43.1597 16.2781L43.1621 16.2765L50.6898 11.3363L50.6898 11.3364L50.6964 11.3317C50.984 11.1294 51.1798 10.8215 51.2411 10.4753C51.3022 10.13 51.2245 9.77452 51.025 9.48621C50.8297 9.19322 50.5268 8.98903 50.1819 8.91806C49.8361 8.84691 49.4762 8.91543 49.1807 9.10868Z" fill="#5D17E9" stroke="#5D17E9" stroke-width="0.5"/>
<path d="M52.7488 22.4913L52.7507 22.4967L44.4088 20.9966L44.4088 20.9966C44.061 20.9341 43.7026 21.0123 43.4125 21.214C43.1224 21.4158 42.9243 21.7245 42.8618 22.0722C42.7993 22.42 42.8775 22.7784 43.0793 23.0685C43.281 23.3586 43.5897 23.5567 43.9374 23.6192C43.9374 23.6192 43.9375 23.6192 43.9375 23.6192L52.6878 25.1939L52.7097 25.1978H52.732H52.92C53.2577 25.2067 53.5862 25.0868 53.8388 24.8624C54.0924 24.6371 54.2504 24.3235 54.2805 23.9857C54.3106 23.6478 54.2105 23.3112 54.0007 23.0447C53.791 22.7781 53.4873 22.6017 53.1519 22.5516L52.7488 22.4913Z" fill="#5D17E9" stroke="#5D17E9" stroke-width="0.5"/>
</svg>
