<svg width="44" height="52" viewBox="0 0 44 52" fill="none" xmlns="http://www.w3.org/2000/svg">
<path fill-rule="evenodd" clip-rule="evenodd" d="M40.3333 52H3.66667C1.64083 52 0 50.3379 0 48.2857V31.5715C0 29.5193 1.64083 27.8572 3.66667 27.8572H13.4438V26C13.4438 23.9479 15.0865 22.2858 17.1105 22.2858H26.8895V18.5715C26.8895 16.5193 28.5303 14.8572 30.5562 14.8572H40.3333C42.3592 14.8572 44 16.5193 44 18.5715V48.2857C44 50.3379 42.3592 52 40.3333 52ZM13.4438 31.5715H3.66667V48.2857H13.4438V31.5715ZM26.8895 26H17.1105V48.2857H26.8895V26ZM30.5562 48.2857H40.3333V18.5715H30.5562V24.1429V48.2857ZM27.4743 6.72664C20.5755 17.0301 7.788 20.371 7.788 20.371C6.80717 20.6255 5.808 20.0256 5.55683 19.032C5.30567 18.0385 5.89783 17.0263 6.87867 16.7719C6.87867 16.7719 19.0557 13.6463 25.0085 3.74593L21.4023 3.71436C20.3903 3.70507 19.5763 2.86564 19.5855 1.8405C19.5947 0.815362 20.4233 -0.00920804 21.4353 7.76628e-05L29.282 0.0706492C30.283 0.0780777 31.0915 0.897076 31.0988 1.91107L31.1667 9.67578C31.1758 10.7009 30.3618 11.5403 29.3498 11.5496C28.3378 11.5589 27.5092 10.7343 27.5 9.70921L27.4743 6.72664Z" fill="white"/>
</svg>
