<svg width="649" height="415" viewBox="0 0 649 415" fill="none" xmlns="http://www.w3.org/2000/svg">
<g clipPath="url(#clip0_1678_309)">
<g filter="url(#filter0_d_1678_309)">
<path d="M287.421 225.449C289.607 219.97 291.525 215.297 293.334 210.583C302.068 187.757 310.782 164.921 319.457 142.075C320.699 138.808 321.802 135.149 325.856 135.232C329.87 135.314 330.923 139.056 332.145 142.282C341.843 167.837 351.551 193.391 361.259 218.946C361.915 220.683 362.68 222.368 363.843 225.149C364.916 222.792 365.661 221.396 366.208 219.918C375.866 193.991 385.604 168.095 395.073 142.085C396.931 136.979 399.634 134.673 404.97 134.921C412.064 135.252 419.189 134.942 426.303 135.014C431.51 135.066 432.752 136.803 430.785 141.6C413.644 183.478 396.444 225.325 379.284 267.203C377.873 270.635 375.548 272.165 371.941 272.072C366.814 271.937 361.677 271.875 356.559 272.082C352.326 272.258 349.862 270.428 348.262 266.365C341.496 249.215 334.55 232.137 327.664 215.039C327.227 213.943 326.71 212.878 325.746 210.707C324.693 212.919 323.968 214.274 323.391 215.7C316.605 232.489 309.759 249.246 303.151 266.107C301.481 270.376 299.017 272.372 294.546 272.103C290.263 271.844 285.921 271.731 281.648 272.123C276.173 272.62 273.232 270.304 271.116 265.073C259.043 235.135 246.722 205.3 234.47 175.445C229.939 164.394 225.338 153.364 220.827 142.302C218.581 136.792 219.694 135.066 225.428 135.025C232.701 134.973 239.985 135.18 247.258 134.952C251.978 134.808 254.392 136.989 256.032 141.475C265.541 167.485 275.259 193.412 284.917 219.36C285.593 221.117 286.348 222.813 287.421 225.449Z" fill="url(#paint0_linear_1678_309)"/>
<path d="M308.048 110.546C308.048 121.552 299.153 130.474 288.18 130.474C277.208 130.474 268.312 121.552 268.312 110.546C268.312 99.5395 277.208 90.6172 288.18 90.6172C299.153 90.6172 308.048 99.5395 308.048 110.546Z" fill="url(#paint1_linear_1678_309)"/>
<path d="M383.103 110.546C383.103 121.552 374.208 130.474 363.235 130.474C352.262 130.474 343.367 121.552 343.367 110.546C343.367 99.5395 352.262 90.6172 363.235 90.6172C374.208 90.6172 383.103 99.5395 383.103 110.546Z" fill="url(#paint2_linear_1678_309)"/>
</g>
<g filter="url(#filter1_f_1678_309)">
<rect y="80" width="649" height="377" fill="white"/>
</g>
</g>
<defs>
<filter id="filter0_d_1678_309" x="63" y="-76" width="521" height="522.807" filterUnits="userSpaceOnUse" color-interpolation-filters="sRGB">
<feFlood flood-opacity="0" result="BackgroundImageFix"/>
<feColorMatrix in="SourceAlpha" type="matrix" values="0 0 0 0 0 0 0 0 0 0 0 0 0 0 0 0 0 0 127 0" result="hardAlpha"/>
<feOffset dy="4"/>
<feGaussianBlur stdDeviation="2"/>
<feComposite in2="hardAlpha" operator="out"/>
<feColorMatrix type="matrix" values="0 0 0 0 0 0 0 0 0 0 0 0 0 0 0 0 0 0 0.25 0"/>
<feBlend mode="normal" in2="BackgroundImageFix" result="effect1_dropShadow_1678_309"/>
<feBlend mode="normal" in="SourceGraphic" in2="effect1_dropShadow_1678_309" result="shape"/>
</filter>
<filter id="filter1_f_1678_309" x="-200" y="-120" width="1049" height="777" filterUnits="userSpaceOnUse" color-interpolation-filters="sRGB">
<feFlood flood-opacity="0" result="BackgroundImageFix"/>
<feBlend mode="normal" in="SourceGraphic" in2="BackgroundImageFix" result="shape"/>
<feGaussianBlur stdDeviation="100" result="effect1_foregroundBlur_1678_309"/>
</filter>
<linearGradient id="paint0_linear_1678_309" x1="325.706" y1="134.903" x2="325.706" y2="272.189" gradientUnits="userSpaceOnUse">
<stop stop-color="#02BEFF"/>
<stop offset="1" stop-color="#409ED3" stop-opacity="0.5"/>
</linearGradient>
<linearGradient id="paint1_linear_1678_309" x1="288.18" y1="90.6172" x2="288.18" y2="130.474" gradientUnits="userSpaceOnUse">
<stop stop-color="#02BEFF"/>
<stop offset="1" stop-color="#409ED3" stop-opacity="0.5"/>
</linearGradient>
<linearGradient id="paint2_linear_1678_309" x1="363.235" y1="90.6172" x2="363.235" y2="130.474" gradientUnits="userSpaceOnUse">
<stop stop-color="#02BEFF"/>
<stop offset="1" stop-color="#409ED3" stop-opacity="0.5"/>
</linearGradient>
<clipPath id="clip0_1678_309">
<rect width="649" height="415" fill="white"/>
</clipPath>
</defs>
</svg>
