<svg width="263" height="67" viewBox="0 0 263 67" fill="none" xmlns="http://www.w3.org/2000/svg">
<g clipPath="url(#clip0_1529_4410)">
<path d="M19.5364 52.9976C20.1674 51.4424 20.721 50.1161 21.243 48.778C23.7643 42.299 26.2799 35.817 28.784 29.3321C29.1425 28.4048 29.4609 27.3661 30.6312 27.3895C31.79 27.413 32.094 28.4753 32.4469 29.3908C35.2464 36.6445 38.0488 43.8982 40.8511 51.1519C41.0405 51.6449 41.2613 52.1232 41.5969 52.9125C41.9067 52.2435 42.1218 51.8473 42.2796 51.4277C45.0676 44.0684 47.8786 36.7178 50.6122 29.335C51.1486 27.8854 51.9288 27.2311 53.4691 27.3015C55.5171 27.3954 57.5737 27.3074 59.6274 27.3279C61.1305 27.3426 61.489 27.8356 60.9211 29.1971C55.9731 41.0841 51.008 52.9624 46.0544 64.8494C45.647 65.8236 44.9759 66.2579 43.9346 66.2315C42.4546 66.1934 40.9716 66.1758 39.4944 66.2345C38.2725 66.2843 37.5611 65.765 37.0993 64.6118C35.146 59.7437 33.141 54.8961 31.1532 50.0427C31.027 49.7317 30.8779 49.4294 30.5996 48.8132C30.2956 49.4412 30.0862 49.8256 29.9198 50.2305C27.9607 54.9959 25.9844 59.7525 24.077 64.5384C23.5951 65.7503 22.8837 66.3166 21.593 66.2403C20.3567 66.167 19.1032 66.1347 17.8698 66.2462C16.2894 66.387 15.4403 65.7297 14.8294 64.245C11.3443 55.7471 7.78756 47.2786 4.25087 38.8042C2.9429 35.6673 1.61485 32.5364 0.312613 29.3966C-0.335636 27.8326 -0.0143798 27.3426 1.64066 27.3309C3.7403 27.3162 5.84281 27.3749 7.94245 27.3103C9.30492 27.2692 10.0019 27.8884 10.4752 29.1619C13.2202 36.5447 16.0255 43.9041 18.8135 51.2693C19.0086 51.7681 19.2266 52.2493 19.5364 52.9976Z" fill="#292929"/>
<path d="M212.433 52.39C213.902 48.5548 215.227 45.1187 216.535 41.6738C218.19 37.3104 219.862 32.9529 221.46 28.5661C221.945 27.2339 222.693 26.6118 224.116 26.6617C226.261 26.738 228.416 26.6587 230.564 26.691C231.947 26.7115 232.271 27.2221 231.723 28.5396C226.789 40.3856 221.838 52.2228 216.911 64.0687C216.46 65.1545 215.752 65.6445 214.587 65.5946C213.205 65.5359 211.814 65.5242 210.434 65.5975C209.094 65.668 208.326 65.1075 207.821 63.8399C205.913 59.051 203.943 54.2915 201.989 49.5202C201.846 49.1711 201.674 48.8307 201.356 48.147C201 48.9422 200.747 49.4674 200.527 50.0103C198.654 54.5967 196.758 59.1743 194.939 63.7841C194.417 65.1104 193.634 65.7002 192.226 65.6005C190.943 65.5095 189.644 65.5125 188.359 65.5975C187.005 65.6856 186.265 65.0987 185.749 63.8457C182.152 55.1307 178.512 46.4333 174.881 37.73C173.627 34.7253 172.345 31.7322 171.106 28.7186C170.463 27.1517 170.779 26.6969 172.471 26.6851C174.476 26.6705 176.487 26.7526 178.489 26.6587C180.024 26.5854 180.821 27.2251 181.357 28.6805C184.071 36.0222 186.859 43.3376 189.624 50.6588C189.805 51.14 190.025 51.6066 190.364 52.3988C191.844 48.5901 193.195 45.107 194.549 41.6239C196.256 37.2341 197.922 32.8297 199.706 28.4722C199.993 27.7738 200.813 26.8495 201.384 26.8524C201.961 26.8553 202.79 27.7738 203.068 28.4722C205.997 35.8344 208.833 43.2349 211.699 50.6236C211.868 51.0725 212.063 51.5097 212.433 52.39Z" fill="#292929"/>
<path d="M69.6303 50.2479C71.1677 54.1065 73.5485 56.6418 77.2257 57.7187C80.6677 58.7281 83.8287 57.751 86.7974 55.9229C87.2047 55.6705 87.5948 55.3859 87.9993 55.1247C88.7737 54.623 89.4162 54.7169 89.9612 55.5209C90.8332 56.8032 91.7568 58.0473 92.6231 59.3326C93.5782 60.7528 93.5008 61.1695 92.2043 62.2699C85.2227 68.1973 75.1519 68.3968 67.6511 62.757C61.1256 57.8507 58.0909 49.4086 59.961 41.3714C61.8456 33.2726 68.1732 27.2602 76.2677 25.8722C88.5213 23.7742 99.3809 33.7803 98.6524 46.4978C98.5176 48.8335 96.9686 50.2332 94.3928 50.239C86.8003 50.2567 79.2049 50.2449 71.6123 50.2449C71.053 50.2478 70.4937 50.2479 69.6303 50.2479ZM88.7479 42.7858C87.8014 37.6683 83.668 34.7427 78.1952 35.1183C74.0246 35.4059 69.7594 39.1531 69.5643 42.7858C75.9321 42.7858 82.2941 42.7858 88.7479 42.7858Z" fill="#292929"/>
<path d="M151.558 66.8828C139.089 66.7302 130.742 56.4395 131.109 45.5442C131.482 34.5081 140.727 25.441 151.81 25.5995C163.172 25.7638 172.239 35.095 172.061 46.4451C171.886 57.8509 162.644 67.0647 151.558 66.8828ZM151.429 57.4577C157.424 57.5545 162.515 52.6072 162.647 46.5536C162.785 40.2888 157.722 34.9483 151.63 34.9336C145.815 34.919 140.744 39.8487 140.641 45.6147C140.523 52.3196 145.11 57.355 151.429 57.4577Z" fill="#292929"/>
<path d="M246.998 25.2532C251.825 25.5642 256.26 26.9287 260.453 29.1793C262.011 30.0156 262.105 30.5291 261.205 32.0755C260.399 33.4576 259.555 34.8192 258.787 36.2218C258.153 37.372 257.427 37.6244 256.208 37.0082C252.975 35.3708 249.611 34.1677 245.908 34.5052C245.392 34.5521 244.867 34.649 244.373 34.8104C243.103 35.227 242.156 36.0105 242.076 37.4718C241.995 38.9155 242.905 39.7489 244.095 40.1685C246.255 40.9285 248.478 41.4977 250.635 42.2607C252.746 43.0089 254.892 43.7308 256.876 44.7637C261.667 47.2549 263.425 51.4481 262.92 56.7857C262.513 61.0698 259.619 64.3827 254.883 65.8528C250.156 67.3229 245.36 67.3875 240.65 65.9702C237.739 65.0928 234.939 63.7959 232.14 62.5634C230.703 61.9296 230.597 61.2987 231.36 59.902C232.148 58.4553 233.015 57.0469 233.763 55.5767C234.426 54.2827 235.292 54.1624 236.477 54.7815C239.336 56.2781 242.299 57.5457 245.535 57.7687C247.374 57.8949 249.249 57.7804 251.082 57.5604C252.387 57.4019 253.586 56.7769 253.882 55.2334C254.14 53.8924 253.457 52.6248 251.86 51.8912C250.388 51.2163 248.813 50.7761 247.279 50.2421C244.801 49.3823 242.236 48.7221 239.856 47.6423C234.979 45.4327 232.84 41.5564 233.207 36.166C233.505 31.7645 236.574 27.8853 241.152 26.4357C243.039 25.8488 245.047 25.6405 246.998 25.2532Z" fill="#292929"/>
<path d="M127.312 32.9617C127.312 43.1585 127.312 53.3525 127.312 63.5493C127.312 65.5153 127.192 65.6445 125.301 65.6533C123.345 65.6621 121.386 65.6239 119.43 65.665C118.277 65.6885 117.772 65.2102 117.798 64.0218C117.838 62.314 117.801 60.6062 117.801 58.8984C117.801 40.0188 117.804 21.1392 117.804 2.25957C117.804 0.0998928 117.875 0.0265341 119.966 0.0265341C121.733 0.0265341 123.5 0.0206654 125.267 0.0265341C127.212 0.0353371 127.309 0.135105 127.309 2.08058C127.312 12.3743 127.312 22.668 127.312 32.9617Z" fill="#292929"/>
<path d="M111.996 32.9587C111.996 43.1556 111.999 53.3524 111.996 63.5493C111.996 65.6092 111.964 65.6444 109.894 65.6532C107.983 65.662 106.073 65.621 104.163 65.665C103.055 65.6914 102.582 65.1837 102.602 64.0951C102.614 63.5581 102.608 63.0211 102.608 62.4841C102.608 42.3838 102.608 22.2836 102.608 2.18326C102.608 0.129211 102.705 0.0265086 104.693 0.0235743C106.555 0.0206399 108.422 0.08813 110.278 0.00303382C111.6 -0.0585875 112.019 0.446121 112.013 1.78125C111.976 12.1747 111.993 22.5682 111.996 32.9587Z" fill="#292929"/>
<ellipse cx="19.638" cy="19.4517" rx="5.61067" ry="5.76344" fill="#5D17E9"/>
<ellipse cx="41.3782" cy="19.4517" rx="5.61067" ry="5.76344" fill="#5D17E9"/>
</g>
<defs>
<clipPath id="clip0_1529_4410">
<rect width="263" height="67" fill="white"/>
</clipPath>
</defs>
</svg>
